{
	"asset":{
		"generator":"Khronos glTF Blender I/O v4.2.69",
		"version":"2.0"
	},
	"scene":0,
	"scenes":[
		{
			"name":"Scene",
			"nodes":[
				0
			]
		}
	],
	"nodes":[
		{
			"mesh":0,
			"name":"Sphere",
			"scale":[
				0.3467305898666382,
				1,
				1
			]
		}
	],
	"materials":[
		{
			"doubleSided":true,
			"name":"Material",
			"pbrMetallicRoughness":{
				"baseColorTexture":{
					"index":0
				},
				"metallicFactor":0.20183485746383667,
				"roughnessFactor":0.5
			}
		}
	],
	"meshes":[
		{
			"name":"Sphere",
			"primitives":[
				{
					"attributes":{
						"POSITION":0,
						"NORMAL":1,
						"TEXCOORD_0":2
					},
					"indices":3,
					"material":0
				}
			]
		}
	],
	"textures":[
		{
			"sampler":0,
			"source":0
		}
	],
	"images":[
		{
			"mimeType":"image/jpeg",
			"name":"ATHOR",
			"uri":"ATHOR.jpg"
		}
	],
	"accessors":[
		{
			"bufferView":0,
			"componentType":5126,
			"count":31741,
			"max":[
				1.1899127960205078,
				0.9047045111656189,
				0.9330257177352905
			],
			"min":[
				-1.0861217975616455,
				-0.9962272047996521,
				-0.9356011152267456
			],
			"type":"VEC3"
		},
		{
			"bufferView":1,
			"componentType":5126,
			"count":31741,
			"type":"VEC3"
		},
		{
			"bufferView":2,
			"componentType":5126,
			"count":31741,
			"type":"VEC2"
		},
		{
			"bufferView":3,
			"componentType":5123,
			"count":46080,
			"type":"SCALAR"
		}
	],
	"bufferViews":[
		{
			"buffer":0,
			"byteLength":380892,
			"byteOffset":0,
			"target":34962
		},
		{
			"buffer":0,
			"byteLength":380892,
			"byteOffset":380892,
			"target":34962
		},
		{
			"buffer":0,
			"byteLength":253928,
			"byteOffset":761784,
			"target":34962
		},
		{
			"buffer":0,
			"byteLength":92160,
			"byteOffset":1015712,
			"target":34963
		}
	],
	"samplers":[
		{
			"magFilter":9729,
			"minFilter":9987
		}
	],
	"buffers":[
		{
			"byteLength":1107872,
			"uri":"AsteroideATHOR.bin"
		}
	]
}
